# xmcd
#
# Track frame offsets:
#	150
#	18233
#	33674
#	50153
#	73010
#	86734
#	102921
#	122931
#	139160
#	153299
#
# Disc length: 2240 seconds
#
# Revision: 1
# Processed by: cddbd v1.5.2PL0 Copyright (c) Steve Scherf et al.
# Submitted via: audiograbber 1.83.01
#
DISCID=8b08be0a
DTITLE=Stone Eagle Band - Stoned Stone Eagle Band
DYEAR=1999
DGENRE=Country
TTITLE0=My Freind Com
TTITLE1=Together Maybe
TTITLE2=Please Leave A Message
TTITLE3=I Wish
TTITLE4=Bluebird
TTITLE5=The End Of The Road
TTITLE6=I Don´t Need You
TTITLE7=Painted Faces
TTITLE8=Topsy Funny World
TTITLE9=A Bum Like You
EXTD=
EXTT0=
EXTT1=
EXTT2=
EXTT3=
EXTT4=
EXTT5=
EXTT6=
EXTT7=
EXTT8=
EXTT9=
PLAYORDER=
